<svg width="20" height="20" viewBox="0 0 20 20" fill="none" xmlns="http://www.w3.org/2000/svg"><path d="M1.551 19.455h16.898c.358 0 .642-.306.642-.692 0-3.62-2.732-6.581-6.106-6.581h-5.97c-3.36 0-6.106 2.944-6.106 6.58 0 .387.284.693.642.693zm5.464-5.89h5.97c2.449 0 4.464 1.964 4.777 4.506H2.238c.313-2.526 2.328-4.505 4.777-4.505zM10 9.636a4.55 4.55 0 0 0 4.546-4.552A4.538 4.538 0 0 0 10 .545a4.547 4.547 0 0 0-4.545 4.539c0 2.5 2.035 4.552 4.545 4.552zm0-7.904a3.359 3.359 0 0 1 3.346 3.352A3.359 3.359 0 0 1 10 8.435a3.359 3.359 0 0 1-3.346-3.351A3.359 3.359 0 0 1 10 1.732z" fill="#B43731" stroke="#B43731"/></svg>